<svg xmlns="http://www.w3.org/2000/svg" width="20" height="20" viewBox="0 0 20 20" fill="none">
  <g clip-path="url(#clip0_66185_646)">
    <path d="M10 0C8.02219 0 6.08879 0.58649 4.4443 1.6853C2.79981 2.78412 1.51809 4.3459 0.761209 6.17317C0.00433286 8.00043 -0.193701 10.0111 0.192152 11.9509C0.578004 13.8907 1.53041 15.6725 2.92894 17.0711C4.32746 18.4696 6.10929 19.422 8.0491 19.8079C9.98891 20.1937 11.9996 19.9957 13.8268 19.2388C15.6541 18.4819 17.2159 17.2002 18.3147 15.5557C19.4135 13.9112 20 11.9778 20 10C19.9971 7.34872 18.9426 4.80684 17.0679 2.9321C15.1932 1.05736 12.6513 0.00286757 10 0V0ZM10 17.5C8.51664 17.5 7.0666 17.0601 5.83323 16.236C4.59986 15.4119 3.63857 14.2406 3.07091 12.8701C2.50325 11.4997 2.35473 9.99168 2.64411 8.53682C2.9335 7.08197 3.64781 5.74559 4.6967 4.6967C5.7456 3.64781 7.08197 2.9335 8.53683 2.64411C9.99168 2.35472 11.4997 2.50325 12.8701 3.0709C14.2406 3.63856 15.4119 4.59985 16.236 5.83322C17.0601 7.06659 17.5 8.51664 17.5 10C17.4978 11.9884 16.7069 13.8948 15.3009 15.3009C13.8948 16.7069 11.9885 17.4978 10 17.5Z" fill="#585D69"/>
  </g>
  <defs>
    <clipPath id="clip0_66185_646">
      <rect width="20" height="20" fill="white"/>
    </clipPath>
  </defs>
</svg>